<?xml version="1.0" encoding="utf-8"?>
<!-- Generator: Adobe Illustrator 21.0.1, SVG Export Plug-In . SVG Version: 6.00 Build 0)  -->
<svg version="1.1" id="Layer_1" xmlns="http://www.w3.org/2000/svg" xmlns:xlink="http://www.w3.org/1999/xlink" x="0px" y="0px"
	 viewBox="0 0 17.1 16" style="enable-background:new 0 0 17.1 16;" xml:space="preserve">
<path d="M16,8.1C16,8.1,16,8.1,16,8.1C16,8.1,16,8.2,16,8.1c0,0.1,0,0.1,0,0.1c0,0,0,0,0,0c0,0,0,0,0,0c0,0,0,0,0,0c0,0,0,0,0,0
	c0,0,0,0,0,0c0,0,0,0,0,0c0,0,0,0,0,0c0,0,0,0,0,0c0,0,0,0,0,0c0,0,0,0-0.1,0.1c0,0,0,0,0,0l-2.7,2.7c-0.2,0.2-0.4,0.3-0.6,0.3
	c-0.2,0-0.5-0.1-0.6-0.3c-0.3-0.3-0.3-0.9,0-1.3L13,9H6C5.5,9,4.8,8.5,4.8,8S5.5,7,6,7h7l-1.2-1c-0.3-0.3-0.3-0.9,0-1.3
	c0.3-0.3,0.9-0.3,1.3,0l2.7,2.7c0,0,0,0,0.1,0.1c0,0,0,0,0,0c0,0,0,0,0,0c0,0,0,0,0,0c0,0,0,0,0,0c0,0,0,0,0,0c0,0,0,0,0,0
	c0,0,0,0,0,0c0,0,0,0,0,0c0,0,0,0,0,0c0,0,0,0,0,0c0,0,0,0,0,0c0,0,0,0,0,0C16,7.9,16,8,16,8.1L16,8.1L16,8.1C16,8,16,8.1,16,8.1
	L16,8.1z M8,4V2H2v12h6v-2c0-0.6,0.4-1,1-1h0c0.6,0,1,0.4,1,1v3c0,0.5-0.4,1-1,1H0.9C0.4,16,0,15.6,0,15.1V0.9C0,0.4,0.4,0,0.9,0
	h8.3C9.6,0,10,0.4,10,0.8V3l0,1L8,4"/>
<path d="M9,5L9,5C8.4,5,8,4.6,8,4V3h2v1C10,4.6,9.5,5,9,5z"/>
</svg>
