<?xml version="1.0" encoding="utf-8"?>
<!-- Generator: Adobe Illustrator 19.2.0, SVG Export Plug-In . SVG Version: 6.00 Build 0)  -->
<svg version="1.1" id="Layer_1" xmlns="http://www.w3.org/2000/svg" xmlns:xlink="http://www.w3.org/1999/xlink" x="0px" y="0px"
	 viewBox="0 0 93.4 92.5" style="enable-background:new 0 0 93.4 92.5;" xml:space="preserve">
<style type="text/css">
	.st0{fill:#FF6A22;}
</style>
<path class="st0" d="M46.5,1.3C21.7,1.3,1.6,21.4,1.6,46.1C1.6,71,21.7,91,46.5,91C71.3,91,91.4,71,91.4,46.1
	C91.4,21.4,71.3,1.3,46.5,1.3z M15,56.4c0,0.1-0.1,0.3-0.3,0.3c-0.1,0-0.2-0.1-0.3-0.3l-0.5-3.6l0.5-3.6c0-0.1,0.1-0.3,0.3-0.3
	c0.1,0,0.2,0.1,0.3,0.3l0.6,3.6L15,56.4z M17.4,58.5c0,0.2-0.1,0.3-0.3,0.3c-0.1,0-0.3-0.1-0.3-0.3l-0.6-5.7l0.6-5.8
	c0-0.1,0.1-0.3,0.3-0.3c0.1,0,0.3,0.1,0.3,0.3l0.7,5.8L17.4,58.5z M20,59.5c0,0.2-0.2,0.3-0.3,0.3c-0.2,0-0.3-0.1-0.3-0.3l-0.6-6.7
	l0.6-6.9c0-0.2,0.2-0.3,0.3-0.3c0.2,0,0.3,0.1,0.3,0.3l0.7,6.9L20,59.5z M22.6,59.7c0,0.2-0.2,0.4-0.4,0.4c-0.2,0-0.4-0.2-0.4-0.4
	l-0.6-6.9l0.6-7.1c0-0.2,0.2-0.4,0.4-0.4c0.2,0,0.4,0.2,0.4,0.4l0.6,7.1L22.6,59.7z M25.3,59.8c0,0.2-0.2,0.4-0.4,0.4
	c-0.2,0-0.4-0.2-0.4-0.4L24,52.9l0.5-6.6c0-0.2,0.2-0.4,0.4-0.4c0.2,0,0.4,0.2,0.4,0.4l0.6,6.6L25.3,59.8z M27.9,59.8L27.9,59.8
	c0,0.3-0.2,0.5-0.5,0.5s-0.5-0.2-0.5-0.5l-0.5-6.9l0.5-10.7c0-0.3,0.2-0.5,0.5-0.5s0.5,0.2,0.5,0.5l0.6,10.7L27.9,59.8z M30.6,59.8
	L30.6,59.8c0,0.3-0.3,0.5-0.6,0.5c-0.3,0-0.5-0.2-0.5-0.5L29,52.9l0.5-13.2c0-0.3,0.3-0.5,0.5-0.5c0.3,0,0.5,0.2,0.6,0.5l0.5,13.2
	L30.6,59.8z M33.4,59.7L33.4,59.7c0,0.3-0.3,0.6-0.6,0.6c-0.3,0-0.6-0.3-0.6-0.6l-0.4-6.8l0.4-14.3c0-0.3,0.3-0.6,0.6-0.6
	c0.3,0,0.6,0.3,0.6,0.6l0.5,14.3L33.4,59.7z M36.1,59.5c0,0.4-0.3,0.7-0.7,0.7c-0.4,0-0.6-0.3-0.7-0.7l-0.4-6.8L34.7,38
	c0-0.4,0.3-0.7,0.7-0.7c0.4,0,0.6,0.3,0.7,0.7l0.5,14.8L36.1,59.5z M38.8,59.5L38.8,59.5c0,0.4-0.3,0.7-0.7,0.7
	c-0.4,0-0.7-0.3-0.7-0.7L37,52.8l0.4-14.4c0-0.4,0.3-0.7,0.7-0.7c0.4,0,0.7,0.3,0.7,0.7l0.4,14.4L38.8,59.5z M41.6,59.5L41.6,59.5
	c0,0.4-0.3,0.8-0.8,0.8c-0.4,0-0.8-0.3-0.8-0.8l-0.3-6.7L40,38.9c0-0.4,0.3-0.8,0.8-0.8c0.4,0,0.8,0.3,0.8,0.8L42,52.8L41.6,59.5z
	 M44.5,58.8v0.7c0,0.2-0.1,0.4-0.3,0.6c-0.1,0.1-0.4,0.2-0.6,0.2c-0.3,0-0.5-0.1-0.6-0.3c-0.1-0.1-0.2-0.3-0.2-0.5l0,0l-0.3-6.6
	l0.3-16.4v-0.2c0-0.3,0.2-0.5,0.4-0.7c0.1-0.1,0.3-0.1,0.4-0.1c0.2,0,0.3,0,0.5,0.1s0.4,0.4,0.4,0.7l0.3,16.5L44.5,58.8z M47.2,59.3
	L47.2,59.3c0,0.5-0.4,0.9-0.9,0.9s-0.9-0.4-0.9-0.9l-0.2-3.2L45,52.8l0.4-17.9v-0.1c0-0.3,0.1-0.5,0.3-0.7c0.2-0.1,0.3-0.2,0.6-0.2
	c0.2,0,0.3,0,0.4,0.1c0.3,0.2,0.4,0.4,0.4,0.8l0.4,18L47.2,59.3z M71,60.3H48.8c-0.5-0.1-0.9-0.4-0.9-0.9V33.9
	c0-0.5,0.2-0.7,0.8-0.9c1.6-0.6,3.3-1,5.1-1c7.4,0,13.4,5.7,14.1,12.9c0.9-0.4,2-0.6,3.1-0.6c4.4,0,8,3.6,8,8
	C79,56.6,75.4,60.3,71,60.3z"/>
</svg>
