<?xml version="1.0" encoding="utf-8"?>
<!-- Generator: Adobe Illustrator 19.2.0, SVG Export Plug-In . SVG Version: 6.00 Build 0)  -->
<svg version="1.1" id="Layer_1" xmlns="http://www.w3.org/2000/svg" xmlns:xlink="http://www.w3.org/1999/xlink" x="0px" y="0px"
	 viewBox="0 0 1000 1000" style="enable-background:new 0 0 1000 1000;" xml:space="preserve">
<style type="text/css">
	.st0{fill:#FF6A22;}
</style>
<path class="st0" d="M499.9,455c-24.8,0-44.9,20.1-44.9,44.9c0,24.8,20.1,44.9,44.9,44.9c24.8,0,44.9-20.1,44.9-44.9
	C544.8,475.1,524.7,455,499.9,455z M468.4,510.1c0,0.1-0.1,0.3-0.3,0.3c-0.1,0-0.2-0.1-0.3-0.3l-0.5-3.6l0.5-3.6
	c0-0.1,0.1-0.3,0.3-0.3c0.1,0,0.2,0.1,0.3,0.3l0.6,3.6L468.4,510.1z M470.8,512.2c0,0.2-0.1,0.3-0.3,0.3c-0.1,0-0.3-0.1-0.3-0.3
	l-0.6-5.7l0.6-5.8c0-0.1,0.1-0.3,0.3-0.3c0.1,0,0.3,0.1,0.3,0.3l0.7,5.8L470.8,512.2z M473.4,513.2c0,0.2-0.2,0.3-0.3,0.3
	c-0.2,0-0.3-0.1-0.3-0.3l-0.6-6.7l0.6-6.9c0-0.2,0.2-0.3,0.3-0.3c0.2,0,0.3,0.1,0.3,0.3l0.7,6.9L473.4,513.2z M476,513.4
	c0,0.2-0.2,0.4-0.4,0.4c-0.2,0-0.4-0.2-0.4-0.4l-0.6-6.9l0.6-7.1c0-0.2,0.2-0.4,0.4-0.4c0.2,0,0.4,0.2,0.4,0.4l0.6,7.1L476,513.4z
	 M478.7,513.5c0,0.2-0.2,0.4-0.4,0.4c-0.2,0-0.4-0.2-0.4-0.4l-0.5-6.9l0.5-6.6c0-0.2,0.2-0.4,0.4-0.4c0.2,0,0.4,0.2,0.4,0.4l0.6,6.6
	L478.7,513.5z M481.3,513.5L481.3,513.5c0,0.3-0.2,0.5-0.5,0.5c-0.3,0-0.5-0.2-0.5-0.5l-0.5-6.9l0.5-10.7c0-0.3,0.2-0.5,0.5-0.5
	c0.3,0,0.5,0.2,0.5,0.5l0.6,10.7L481.3,513.5z M484,513.5L484,513.5c0,0.3-0.3,0.5-0.6,0.5c-0.3,0-0.5-0.2-0.5-0.5l-0.5-6.9
	l0.5-13.2c0-0.3,0.3-0.5,0.5-0.5c0.3,0,0.5,0.2,0.6,0.5l0.5,13.2L484,513.5z M486.8,513.4L486.8,513.4c0,0.3-0.3,0.6-0.6,0.6
	c-0.3,0-0.6-0.3-0.6-0.6l-0.4-6.8c0,0,0.4-14.3,0.4-14.3c0-0.3,0.3-0.6,0.6-0.6c0.3,0,0.6,0.3,0.6,0.6l0.5,14.3L486.8,513.4z
	 M489.5,513.3c0,0.4-0.3,0.7-0.7,0.7c-0.4,0-0.6-0.3-0.7-0.7l-0.4-6.8l0.4-14.8c0-0.4,0.3-0.7,0.7-0.7c0.4,0,0.6,0.3,0.7,0.7
	l0.5,14.8L489.5,513.3z M492.2,513.2L492.2,513.2c0,0.4-0.3,0.7-0.7,0.7c-0.4,0-0.7-0.3-0.7-0.7l-0.4-6.7l0.4-14.4
	c0-0.4,0.3-0.7,0.7-0.7c0.4,0,0.7,0.3,0.7,0.7l0.4,14.4L492.2,513.2z M495,513.2L495,513.2c0,0.4-0.3,0.8-0.8,0.8
	c-0.4,0-0.8-0.3-0.8-0.8l-0.3-6.7l0.3-13.9c0-0.4,0.3-0.8,0.8-0.8c0.4,0,0.8,0.3,0.8,0.8l0.4,13.9L495,513.2z M497.9,512.5l0,0.7
	c0,0.2-0.1,0.4-0.3,0.6c-0.1,0.1-0.4,0.2-0.6,0.2c-0.3,0-0.5-0.1-0.6-0.3c-0.1-0.1-0.2-0.3-0.2-0.5c0,0,0,0,0,0c0,0-0.3-6.6-0.3-6.6
	l0.3-16.4l0-0.2c0-0.3,0.2-0.5,0.4-0.7c0.1-0.1,0.3-0.1,0.4-0.1c0.2,0,0.3,0,0.5,0.1c0.2,0.1,0.4,0.4,0.4,0.7l0.3,16.5L497.9,512.5z
	 M500.6,513.1L500.6,513.1c0,0.5-0.4,0.9-0.9,0.9c-0.5,0-0.9-0.4-0.9-0.9l-0.2-3.2l-0.2-3.3l0.4-17.9v-0.1c0-0.3,0.1-0.5,0.3-0.7
	c0.2-0.1,0.3-0.2,0.6-0.2c0.2,0,0.3,0,0.4,0.1c0.3,0.2,0.4,0.4,0.4,0.8l0.4,18L500.6,513.1z M524.4,514h-22.2
	c-0.5-0.1-0.9-0.4-0.9-0.9v-25.4c0-0.5,0.2-0.7,0.8-0.9c1.6-0.6,3.3-1,5.1-1c7.4,0,13.4,5.7,14.1,12.9c0.9-0.4,2-0.6,3.1-0.6
	c4.4,0,8,3.6,8,8C532.4,510.4,528.8,514,524.4,514z"/>
</svg>
