<?xml version="1.0" encoding="utf-8"?>
<!-- Generator: Adobe Illustrator 19.2.0, SVG Export Plug-In . SVG Version: 6.00 Build 0)  -->
<svg version="1.1" id="Layer_1" xmlns="http://www.w3.org/2000/svg" xmlns:xlink="http://www.w3.org/1999/xlink" x="0px" y="0px"
	 viewBox="0 0 421 424" style="enable-background:new 0 0 421 424;" xml:space="preserve">
<style type="text/css">
	.st0{fill:#D22215;}
</style>
<g>
	<path class="st0" d="M211.8,6.3C98.7,6.3,7,98,7,211.1s91.7,204.8,204.8,204.8s204.8-91.7,204.8-204.8S324.9,6.3,211.8,6.3z
		 M329,245.4c0,26.9-21.8,48.7-48.7,48.7h-137c-26.9,0-48.7-21.8-48.7-48.7v-68.5c0-26.9,21.8-48.7,48.7-48.7h137
		c26.9,0,48.7,21.8,48.7,48.7V245.4z"/>
	<path class="st0" d="M247.4,209.8l-64-32.5c-1.7-0.9-3.7,0.4-3.7,2.3v63.1c0,1.9,2,3.1,3.7,2.3l64.1-30.6
		C249.3,213.5,249.4,210.8,247.4,209.8z"/>
</g>
</svg>
