<svg xmlns="http://www.w3.org/2000/svg" xmlns:xlink="http://www.w3.org/1999/xlink" version="1.1" style="" xml:space="preserve" width="1000" height="1000"><rect id="backgroundrect" width="100%" height="100%" x="0" y="0" fill="none" stroke="none"/>
<style type="text/css">
	.st0{fill:#D22215;}
</style>

<g class="currentLayer" style=""><title>Layer 1</title><g id="svg_1" class="selected">
	<path class="st0" d="M500.58126600669243,3.59375 C226.55329391022315,3.59375 4.375,226.64655159226996 4.375,501.75311495198355 c0,275.10656335971356 222.17829391022315,498.15936495198355 496.2062660066925,498.15936495198355 c274.02797209646934,0 496.2062660066925,-223.05280159226996 496.2062660066925,-498.15936495198355 C996.787532013385,226.64655159226996 774.6092381031618,3.59375 500.58126600669243,3.59375 zM784.5430549519286,585.1850789063441 c0,65.43206502543143 -52.818831049540506,118.45879430254686 -117.99436110608362,118.45879430254686 h-331.93485567830504 c-65.17553005654311,0 -117.99436110608362,-53.026729277115436 -117.99436110608362,-118.45879430254686 v-166.62068603130308 c0,-65.43206502543143 52.818831049540506,-118.45879430254686 117.99436110608362,-118.45879430254686 h331.93485567830504 c65.17553005654311,0 117.99436110608362,53.026729277115436 117.99436110608362,118.45879430254686 V585.1850789063441 z" id="svg_2"/>
	<path class="st0" d="M586.8358708398871,498.59097054555 L431.7714127127956,419.5373603847128 c-4.118899669000865,-2.1891768967616474 -8.964663985472471,0.9729675096718439 -8.964663985472471,5.594563180613096 v153.48562465073323 c0,4.621595670941254 4.845764316471606,7.540498199956782 8.964663985472471,5.594563180613096 l155.30674634291498,-74.43201448989598 C591.439346940535,507.5909200100146 591.6816351563587,501.02338931972963 586.8358708398871,498.59097054555 z" id="svg_3"/>
</g></g></svg>