<?xml version="1.0" encoding="iso-8859-1"?>
<!-- Generator: Adobe Illustrator 19.2.0, SVG Export Plug-In . SVG Version: 6.00 Build 0)  -->
<svg version="1.1" id="Layer_1" xmlns="http://www.w3.org/2000/svg" xmlns:xlink="http://www.w3.org/1999/xlink" x="0px" y="0px"
	 viewBox="-49 178 512 437" style="enable-background:new -49 178 512 437;" xml:space="preserve">
<path d="M9.661,440.433c0.356,0,0.708-0.019,1.056-0.053c7.683-0.24,15.04-1.786,21.858-4.429l50.497,72.883
	c1.992,2.875,5.268,4.592,8.767,4.592s6.775-1.716,8.767-4.592l50.498-72.883c6.819,2.643,14.175,4.189,21.858,4.429
	c0.348,0.034,0.7,0.053,1.056,0.053c12.105,0,23.511,5.912,30.51,15.815c2.078,2.94,5.372,4.51,8.719,4.51
	c2.128,0,4.277-0.636,6.147-1.957c4.811-3.4,5.954-10.056,2.554-14.866c-10.562-14.944-27.525-24.074-45.713-24.765
	c-0.385-0.043-0.775-0.067-1.171-0.067c-23.135,0-42.252-17.484-44.859-39.93c6.661-4.851,12.807-11.007,18.254-18.381
	c11.015-14.913,18.165-33.548,20.816-53.698c0.812-0.883,1.496-1.911,1.987-3.081c4.664-11.106,7.029-22.963,7.029-35.242
	c0-47.221-35.702-85.637-79.584-85.637c-11.349,0-22.36,2.578-32.768,7.665c-3.891,0.329-7.704,1.028-11.365,2.088
	c-36.686,10.599-57.421,54.957-46.22,98.88c1.127,4.419,2.56,8.765,4.262,12.916c0.464,1.134,1.113,2.13,1.88,3
	c4.225,31.022,18.908,56.833,38.989,71.434c-2.581,22.475-21.712,39.988-44.867,39.988c-0.356,0-0.708,0.019-1.056,0.053
	C-23.815,420.267-49,446.121-49,477.762v63.14c0,5.891,4.775,10.666,10.666,10.666h188.451c5.89,0,10.666-4.775,10.666-10.666
	s-4.776-10.666-10.666-10.666H-27.669v-52.475C-27.669,457.178-10.923,440.433,9.661,440.433z M60.492,213.377
	c2.798-0.808,5.757-1.288,8.796-1.425c1.566-0.07,3.094-0.484,4.482-1.213c7.926-4.164,16.314-6.276,24.933-6.276
	c31.47,0,57.174,27.694,58.204,62.162c-6.414-4.85-14.393-7.733-23.036-7.733H78.092c-2.778,0-5.416-0.872-7.625-2.521
	c-1.891-1.411-3.351-3.305-4.224-5.482c-2.015-5.014-7-8.146-12.383-7.806c-5.416,0.347-9.973,4.111-11.338,9.361
	c-2.721,10.453-7.801,20.188-14.708,28.455C22.283,249.972,36.213,220.391,60.492,213.377z M35.479,303.704
	c9.316-8.54,16.855-18.89,22.119-30.32c0.036,0.027,0.073,0.054,0.11,0.081c5.925,4.422,12.973,6.758,20.384,6.758h55.779
	c6.7,0,12.487,3.92,15.234,9.577c-0.071,22.157-6.384,42.854-17.806,58.315c-10.771,14.58-24.785,22.61-39.462,22.61
	c-13.583,0-26.807-7.017-37.236-19.757C44.483,338.61,37.788,321.974,35.479,303.704z M91.837,392.058
	c6.334,0,12.537-0.961,18.52-2.817c3.379,14.278,11.358,26.796,22.3,35.876l-40.818,58.913l-40.817-58.912
	c10.95-9.086,18.932-21.616,22.307-35.908C79.271,391.07,85.468,392.058,91.837,392.058z"/>
<path d="M406.441,478.455c-0.348-0.034-0.7-0.053-1.056-0.053c-23.167,0-42.305-17.531-44.871-40.023
	c13.062-9.512,23.832-23.774,30.931-41.119c1.016,3.324,3.617,6.008,7.039,7.069c1.04,0.322,2.104,0.479,3.157,0.479
	c3.232,0,6.36-1.473,8.417-4.114c14.881-19.112,22.616-43.986,21.784-70.041c-0.818-25.56-9.803-49.555-25.303-67.563
	c-15.869-18.438-36.819-28.699-59.012-28.911c-1.177-0.048-4.104,0.053-4.577,0.082c-11.401-5.172-23.45-7.587-35.858-7.194
	c-25.625,0.819-49.196,13.591-66.369,35.963c-16.688,21.741-25.355,50.098-24.404,79.85c0.161,5.041,0.559,9.683,1.203,14.103
	c1.737,12.679,5.23,24.822,10.381,36.091c1.639,3.587,5.124,5.977,9.06,6.213c3.923,0.237,7.681-1.718,9.739-5.083
	c0.857-1.403,1.961-3.152,3.178-4.866c4.755,14.445,12.024,27.423,21.253,37.669c3.937,4.371,8.189,8.173,12.668,11.416
	c-2.586,22.469-21.715,39.977-44.866,39.977c-0.356,0-0.708,0.019-1.056,0.053c-31.374,1.112-56.558,26.967-56.558,58.607v63.14
	c0,5.891,4.776,10.666,10.666,10.666h260.346c5.89,0,10.666-4.775,10.666-10.666v-63.14
	C463,505.421,437.815,479.567,406.441,478.455z M241.112,366.625c-1.052-4.108-1.876-8.321-2.467-12.626
	c-0.54-3.708-0.868-7.568-1.003-11.799c-0.794-24.837,6.31-48.341,20.004-66.18c13.208-17.208,31.01-27.02,50.128-27.631
	c0.639-0.021,14.387-0.795,28.421,6.277c1.569,0.79,3.377,1.157,5.138,1.107c0.202-0.006,5.677-0.265,5.836-0.263
	c16.02,0.106,31.362,7.741,43.203,21.498c12.33,14.328,19.487,33.622,20.149,54.329c0.359,11.247-1.221,22.18-4.567,32.239
	c-1.008-2.686-2.132-5.331-3.369-7.932c-10.298-21.91-27.633-38.881-48.812-47.788c-2.683-1.128-5.709-1.111-8.378,0.047
	c-2.67,1.157-4.75,3.355-5.759,6.085c-1.42,3.836-3.14,7.573-5.116,11.106c-5.585,9.986-16.842,15.927-29.361,15.489
	c-1.879-0.064-3.786-0.067-5.666-0.007c-9.223,0.295-18.217,2.053-26.78,5.242C264.255,349.009,250.041,357.017,241.112,366.625z
	 M267.351,372.429c4.044-2.709,8.347-4.94,12.853-6.643c6.344-2.362,13.063-3.672,19.97-3.893c1.41-0.046,2.838-0.044,4.246,0.005
	c20.594,0.705,39.217-9.405,48.718-26.396c0.584-1.045,1.152-2.106,1.701-3.177c9.728,5.993,18.043,14.44,24.295,24.692
	c-0.054,0.316-0.1,0.634-0.126,0.959c-1.636,20.237-8.617,38.809-19.658,52.295c-10.429,12.741-23.653,19.757-37.236,19.757
	C297.004,430.026,274.666,406.158,267.351,372.429z M322.114,451.358c6.384,0,12.597-0.994,18.555-2.864
	c4.284,18.163,16.029,33.466,31.818,42.495c-6.159,22.255-26.627,38.258-50.324,38.258c-23.699,0-44.166-16.004-50.324-38.26
	c15.788-9.028,27.533-24.332,31.816-42.496C309.657,450.368,315.848,451.358,322.114,451.358z M441.669,589.537H202.654v-52.475
	c0-20.583,16.746-37.33,37.33-37.33c0.356,0,0.708-0.019,1.056-0.053c3.673-0.115,7.274-0.519,10.775-1.209
	c9.265,30.416,37.613,52.11,70.347,52.11s61.081-21.694,70.348-52.109c3.5,0.69,7.101,1.094,10.773,1.208
	c0.348,0.034,0.7,0.053,1.056,0.053c20.583,0,37.33,16.746,37.33,37.33V589.537z"/>
</svg>
