<?xml version="1.0" encoding="utf-8"?>
<!-- Generator: Adobe Illustrator 21.0.1, SVG Export Plug-In . SVG Version: 6.00 Build 0)  -->
<svg version="1.1" id="Layer_1" xmlns="http://www.w3.org/2000/svg" xmlns:xlink="http://www.w3.org/1999/xlink" x="0px" y="0px"
	 viewBox="0 0 30 30" style="enable-background:new 0 0 30 30;" xml:space="preserve">
<path d="M17.7,15L29.5,3.2c0.7-0.7,0.7-1.9,0-2.7c-0.7-0.7-1.9-0.7-2.7,0L15,12.3L3.2,0.5c-0.7-0.7-1.9-0.7-2.7,0
	c-0.7,0.7-0.7,1.9,0,2.7L12.3,15L0.5,26.8c-0.7,0.7-0.7,1.9,0,2.7C0.9,29.8,1.4,30,1.9,30c0.5,0,1-0.2,1.3-0.5L15,17.7l11.8,11.8
	c0.4,0.4,0.8,0.5,1.3,0.5c0.5,0,1-0.2,1.3-0.5c0.7-0.7,0.7-1.9,0-2.7L17.7,15z M17.7,15"/>
</svg>
