<?xml version="1.0" encoding="utf-8"?>
<!-- Generator: Adobe Illustrator 21.0.1, SVG Export Plug-In . SVG Version: 6.00 Build 0)  -->
<svg version="1.1" id="Layer_1" xmlns="http://www.w3.org/2000/svg" xmlns:xlink="http://www.w3.org/1999/xlink" x="0px" y="0px"
	 viewBox="0 0 18 17" style="enable-background:new 0 0 18 17;" xml:space="preserve">
<style type="text/css">
	.st0{fill:#0A0A0A;}
</style>
<path class="st0" d="M8.4,0.4C8.5,0.1,8.7,0,9,0c0.3,0,0.5,0.1,0.6,0.4l2.2,4.5c0.1,0.2,0.3,0.3,0.5,0.4l5,0.7
	c0.3,0,0.5,0.2,0.6,0.5c0.1,0.2,0,0.5-0.2,0.7l-3.6,3.5C14,10.8,13.9,11,14,11.2l0.9,4.9c0,0.3-0.1,0.5-0.3,0.7
	C14.3,17,14,17,13.8,16.9l-4.5-2.3c-0.2-0.1-0.4-0.1-0.6,0l-4.5,2.3C4,17,3.7,17,3.5,16.9c-0.2-0.2-0.3-0.4-0.3-0.7L4,11.2
	c0-0.2,0-0.5-0.2-0.6L0.2,7.1C0,7,0,6.7,0,6.4C0.1,6.2,0.3,6,0.6,6l5-0.7c0.2,0,0.4-0.2,0.5-0.4L8.4,0.4L8.4,0.4z"/>
</svg>
