<?xml version="1.0" encoding="iso-8859-1"?>
<!-- Generator: Adobe Illustrator 19.2.0, SVG Export Plug-In . SVG Version: 6.00 Build 0)  -->
<svg version="1.1" id="Layer_1" xmlns="http://www.w3.org/2000/svg" xmlns:xlink="http://www.w3.org/1999/xlink" x="0px" y="0px"
	 viewBox="0 0 16.313 13.875" style="enable-background:new 0 0 16.313 13.875;" xml:space="preserve">
<path d="M5,4.054H1.002c-0.55,0-1-0.45-1-1v0c0-0.55,0.45-1,1-1H5c0.55,0,1,0.45,1,1v0C6,3.604,5.55,4.054,5,4.054z"/>
<path d="M6,1.055v3.998c0,0.55-0.45,1-1,1h0c-0.55,0-1-0.45-1-1V1.055c0-0.55,0.45-1,1-1h0C5.55,0.055,6,0.505,6,1.055z"/>
<path d="M15,4.054H9c-0.55,0-1-0.45-1-1v0c0-0.55,0.45-1,1-1H15c0.55,0,1,0.45,1,1v0C16,3.604,15.55,4.054,15,4.054z"/>
<path d="M15.139,11.864h-3.998c-0.55,0-1-0.45-1-1v0c0-0.55,0.45-1,1-1h3.998c0.55,0,1,0.45,1,1v0
	C16.139,11.414,15.689,11.864,15.139,11.864z"/>
<path d="M12.139,8.865v3.998c0,0.55-0.45,1-1,1h0c-0.55,0-1-0.45-1-1V8.865c0-0.55,0.45-1,1-1h0
	C11.689,7.865,12.139,8.315,12.139,8.865z"/>
<path d="M7.139,11.864H1.14c-0.55,0-1-0.45-1-1v0c0-0.55,0.45-1,1-1h5.999c0.55,0,1,0.45,1,1v0
	C8.139,11.414,7.689,11.864,7.139,11.864z"/>
</svg>
