<?xml version="1.0" encoding="utf-8"?>
<!-- Generator: Adobe Illustrator 21.0.1, SVG Export Plug-In . SVG Version: 6.00 Build 0)  -->
<svg version="1.1" xmlns="http://www.w3.org/2000/svg" xmlns:xlink="http://www.w3.org/1999/xlink" x="0px" y="0px"
	 viewBox="0 0 117 142" style="enable-background:new 0 0 117 142;" xml:space="preserve">
<style type="text/css">
	.st0{display:none;}
</style>
<g id="Layer_2" class="st0">
	
		<image style="display:inline;overflow:visible;" width="1307" height="834" xlink:href="F705317.png"  transform="matrix(1 0 0 1 -2 -1)">
	</image>
</g>
<g id="Layer_1">
	<g>
		<path d="M59.1,137.5c-12.1,0-24.9-13.2-38.1-39.2C10.8,78.1,3.7,56.2,3.7,45.1c0-12.4,6-22.9,17-29.5c4.9-2.9,10.7-5.1,17.4-6.6
			c6.3-1.4,13.3-2,21-2s14.7,0.7,21,2c6.7,1.4,12.5,3.7,17.4,6.6l0,0c11,6.6,17,17.1,17,29.5c0,11.2-7.1,33.1-17.3,53.2
			C83.9,124.3,71.1,137.5,59.1,137.5z M59.1,19c-6.8,0-13,0.6-18.5,1.8c-5.4,1.2-10,2.9-13.7,5.1c-7.4,4.5-11.2,10.9-11.2,19.2
			c0,9.2,6.9,29.7,16,47.8c12.2,24.1,22.4,32.6,27.3,32.6c5,0,15.1-8.5,27.3-32.6c9.1-18,16-38.6,16-47.8c0-8.3-3.8-14.7-11.2-19.2
			l0,0c-3.7-2.2-8.3-4-13.7-5.1C72.1,19.6,65.9,19,59.1,19z"/>
	</g>
</g>
</svg>
