<?xml version="1.0" encoding="utf-8"?>
<!-- Generator: Adobe Illustrator 19.2.0, SVG Export Plug-In . SVG Version: 6.00 Build 0)  -->
<svg version="1.1" id="Layer_1" xmlns="http://www.w3.org/2000/svg" xmlns:xlink="http://www.w3.org/1999/xlink" x="0px" y="0px"
	 viewBox="0 0 686 137.8" style="enable-background:new 0 0 686 137.8;" xml:space="preserve">
<style type="text/css">
	.st0{fill:#DDE8ED;}
	.st1{fill:url(#SVGID_1_);}
</style>
<g>
	<path class="st0" d="M168.3,112.6c-1.7-0.1-3.1-0.7-4.2-1.9c-1.1-1.2-1.6-2.6-1.6-4.2V30.3c0-0.8,0.2-1.5,0.5-2.2
		c0.3-0.7,0.8-1.3,1.3-1.8c0.5-0.5,1.2-0.9,1.9-1.2c0.7-0.3,1.5-0.4,2.3-0.4h0.5h32c3.3,0,6.5,0.7,9.4,2c3,1.3,5.5,3.1,7.7,5.3
		c2.2,2.2,3.9,4.9,5.2,8.1c1.3,3.2,1.9,6.5,1.9,9.9c0,3.6-0.7,6.9-2.1,9.8c-1.4,3-3.3,5.6-5.7,7.8c2.8,2.4,5,5.3,6.7,8.6
		c1.7,3.4,2.5,7,2.5,11c0,3.5-0.7,6.7-2,9.8s-3.1,5.7-5.4,8c-2.3,2.3-4.9,4.1-8,5.4c-3,1.3-6.3,2-9.8,2H168.3z M193.8,67.9
		c0-0.8,0.2-1.6,0.5-2.3c0.3-0.7,0.7-1.4,1.3-1.9c0.6-0.6,1.2-1,1.9-1.3c0.7-0.3,1.5-0.5,2.4-0.5h1.6c1.6,0,3.2-0.4,4.6-1
		c1.4-0.6,2.7-1.5,3.7-2.6s1.9-2.3,2.5-3.7c0.6-1.4,0.9-2.9,0.9-4.5c0-1.9-0.4-3.6-1.1-5.1c-0.7-1.5-1.7-3-2.9-4.3
		c-1.2-1.3-2.6-2.3-4.2-2.9c-1.6-0.6-3.3-0.9-5.1-0.9h-25.3v63.6h26.9c1.7,0,3.4-0.4,4.9-1.1c1.6-0.7,2.9-1.7,4-2.9
		c1.1-1.2,2-2.6,2.7-4.2c0.7-1.6,1-3.3,1-5c0-1.8-0.3-3.5-1-5.1c-0.7-1.6-1.6-3-2.7-4.2c-1.1-1.2-2.5-2.2-4-2.9
		c-1.6-0.7-3.2-1.1-4.9-1.1h-1.7c-1.7,0-3.1-0.6-4.3-1.8C194.4,71,193.8,69.6,193.8,67.9z"/>
	<path class="st0" d="M265.8,113.4c-4.5,0-8.7-0.9-12.6-2.6c-3.9-1.7-7.3-4-10.2-7c-2.9-2.9-5.2-6.4-6.9-10.3
		c-1.7-4-2.5-8.2-2.5-12.7s0.8-8.7,2.5-12.7c1.7-4,4-7.4,6.9-10.4s6.3-5.3,10.2-7c3.9-1.7,8.1-2.6,12.6-2.6s8.7,0.8,12.6,2.5
		c3.9,1.7,7.3,4,10.2,6.9c2.9,2.9,5.2,6.3,6.9,10.2c1.7,3.9,2.6,8.1,2.7,12.5v0.4V107c0,1.7-0.6,3.1-1.7,4.3s-2.6,1.8-4.3,1.8
		c-1.7,0-3.1-0.6-4.2-1.8c-1.1-1.2-1.6-2.6-1.6-4.3l-0.1-0.9c-2.8,2.3-5.9,4.1-9.4,5.4C273.4,112.7,269.7,113.4,265.8,113.4z
		 M265.8,101.5c2.9,0,5.6-0.5,8.1-1.6c2.5-1.1,4.7-2.6,6.5-4.5c1.8-1.9,3.3-4.1,4.3-6.6c1-2.5,1.6-5.2,1.6-8s-0.5-5.5-1.6-8
		c-1-2.5-2.5-4.7-4.3-6.6c-1.8-1.9-4-3.3-6.5-4.4c-2.5-1.1-5.2-1.6-8.1-1.6c-2.9,0-5.6,0.5-8.1,1.6c-2.5,1.1-4.6,2.6-6.5,4.4
		c-1.8,1.9-3.3,4-4.3,6.6c-1.1,2.5-1.6,5.2-1.6,8s0.5,5.5,1.6,8c1.1,2.5,2.5,4.7,4.3,6.6c1.8,1.9,4,3.4,6.5,4.5
		C260.2,101,262.9,101.5,265.8,101.5z"/>
	<path class="st0" d="M308.8,79.9v-0.3c0-4.3,0.8-8.4,2.4-12.2c1.6-3.8,3.7-7.2,6.5-10c2.8-2.8,6-5.1,9.7-6.7
		c3.7-1.6,7.8-2.5,12.1-2.5c4.4,0,8.4,0.8,12.2,2.5c3.8,1.6,7,3.9,9.8,6.7c2.8,2.8,5,6.2,6.5,10c1.6,3.8,2.4,7.9,2.4,12.2V80v26.8
		c0,1.7-0.6,3.1-1.7,4.2c-1.1,1.1-2.5,1.6-4.2,1.6s-3.1-0.5-4.2-1.6c-1.2-1.1-1.7-2.5-1.7-4.2V79.9v-0.1c0-2.7-0.6-5.3-1.5-7.6
		c-1-2.4-2.3-4.5-4-6.2c-1.7-1.8-3.7-3.2-6-4.2c-2.3-1-4.8-1.6-7.5-1.6c-2.7,0-5.2,0.5-7.5,1.5c-2.3,1-4.3,2.4-6,4.2
		c-1.7,1.8-3,3.9-4,6.2c-1,2.4-1.4,4.9-1.4,7.6v27.1c0,1.7-0.5,3.1-1.6,4.2c-1.1,1.1-2.5,1.6-4.1,1.6c-0.8,0-1.6-0.1-2.3-0.4
		c-0.7-0.3-1.4-0.7-1.9-1.2c-0.6-0.5-1-1.1-1.3-1.8c-0.3-0.7-0.5-1.5-0.5-2.3V79.9z"/>
	<path class="st0" d="M379.7,80.8c0-4.5,0.9-8.7,2.6-12.7c1.7-4,4-7.4,7-10.4c3-3,6.4-5.3,10.3-7c3.9-1.7,8.1-2.6,12.6-2.6
		c2.7,0,5.1,0.3,7.2,0.8c2.1,0.5,4,1.3,5.7,2.3c1.7,1,3.1,2.3,4.4,3.8c1.3,1.5,2.4,3.2,3.4,5V30.9c0-1.7,0.6-3.2,1.7-4.4
		c1.1-1.2,2.5-1.8,4.2-1.8c1.7,0,3.1,0.6,4.2,1.8c1.1,1.2,1.7,2.6,1.7,4.4v49.9v0.4c0,4.4-0.9,8.6-2.6,12.5c-1.7,3.9-4,7.3-7,10.2
		c-2.9,2.9-6.4,5.2-10.3,6.9c-3.9,1.7-8.1,2.5-12.6,2.5c-4.5,0-8.7-0.9-12.6-2.6c-3.9-1.7-7.4-4-10.3-7c-3-2.9-5.3-6.4-7-10.3
		C380.5,89.5,379.7,85.3,379.7,80.8z M391.5,80.8c0,2.8,0.5,5.5,1.6,8c1.1,2.5,2.6,4.7,4.4,6.6c1.9,1.9,4.1,3.4,6.6,4.5
		c2.5,1.1,5.2,1.6,8.1,1.6c2.9,0,5.7-0.5,8.2-1.6c2.5-1.1,4.7-2.6,6.6-4.5c1.9-1.9,3.3-4.1,4.4-6.6c1.1-2.5,1.6-5.2,1.6-8
		s-0.5-5.5-1.6-8c-1.1-2.5-2.5-4.7-4.4-6.6c-1.9-1.9-4.1-3.3-6.6-4.4c-2.5-1.1-5.2-1.6-8.2-1.6c-2.9,0-5.6,0.5-8.1,1.6
		c-2.5,1.1-4.7,2.6-6.6,4.4c-1.9,1.9-3.3,4-4.4,6.6C392,75.3,391.5,78,391.5,80.8z"/>
	<path class="st0" d="M456.9,71.1v-0.9c0-3,0.6-5.9,1.7-8.5c1.2-2.7,2.7-5,4.7-7c2-2,4.3-3.5,6.9-4.7c2.6-1.2,5.5-1.7,8.5-1.7
		c3.2,0,6.2,0.6,8.9,1.9c2.7,1.3,5.1,3,7.2,5.2c2-2.2,4.4-3.9,7.1-5.2c2.7-1.3,5.7-1.9,8.9-1.9c3,0,5.9,0.6,8.6,1.7
		c2.7,1.2,5.1,2.7,7.1,4.7c2,2,3.6,4.3,4.8,7c1.2,2.7,1.8,5.5,1.8,8.5v36.5c0,1.7-0.6,3.1-1.7,4.2c-1.2,1.1-2.5,1.7-4.2,1.7
		c-1.7,0-3.1-0.6-4.2-1.7c-1.1-1.1-1.7-2.5-1.7-4.2V70.9c0-1.4-0.3-2.8-0.8-4c-0.6-1.3-1.3-2.4-2.3-3.3c-1-1-2.1-1.7-3.4-2.3
		c-1.3-0.6-2.6-0.8-4.1-0.8c-1.3,0-2.6,0.2-3.8,0.7c-1.2,0.5-2.2,1.2-3.1,2c-0.9,0.9-1.6,1.9-2.2,3c-0.6,1.2-0.9,2.4-1,3.7
		c0,0.1,0.1,0.4,0.1,0.8v13.6c0,0.8-0.2,1.6-0.5,2.3c-0.3,0.7-0.7,1.3-1.3,1.9c-0.5,0.5-1.2,1-1.9,1.3c-0.7,0.3-1.5,0.5-2.3,0.5
		c-1.7,0-3.1-0.6-4.2-1.7c-1.1-1.1-1.7-2.5-1.7-4.2V70.9c0-1.5-0.3-2.8-0.8-4.1c-0.5-1.3-1.3-2.4-2.2-3.4c-0.9-1-2-1.7-3.2-2.3
		c-1.2-0.6-2.6-0.8-4-0.8c-1.3,0-2.6,0.2-3.7,0.7c-1.2,0.5-2.2,1.1-3.1,1.9c-0.9,0.8-1.7,1.7-2.3,2.8c-0.6,1.1-1,2.3-1.2,3.5
		c0,0.2,0.1,0.4,0.1,0.6c0,0.2,0,0.3,0,0.6l-0.2,36.3c0,1.7-0.6,3.1-1.7,4.2c-1.2,1.1-2.5,1.7-4.1,1.7c-1.6,0-3-0.6-4.2-1.7
		c-1.2-1.1-1.7-2.5-1.7-4.2V71.1z"/>
	<path class="st0" d="M574,113.4c-4.5,0-8.7-0.9-12.6-2.6c-3.9-1.7-7.3-4-10.2-7c-2.9-2.9-5.2-6.4-6.9-10.3c-1.7-4-2.5-8.2-2.5-12.7
		s0.8-8.7,2.5-12.7c1.7-4,4-7.4,6.9-10.4s6.3-5.3,10.2-7c3.9-1.7,8.1-2.6,12.6-2.6s8.7,0.8,12.6,2.5c3.9,1.7,7.3,4,10.2,6.9
		c2.9,2.9,5.2,6.3,6.9,10.2c1.7,3.9,2.6,8.1,2.7,12.5v0.4V107c0,1.7-0.6,3.1-1.7,4.3s-2.6,1.8-4.3,1.8c-1.7,0-3.1-0.6-4.2-1.8
		c-1.1-1.2-1.6-2.6-1.6-4.3l-0.1-0.9c-2.8,2.3-5.9,4.1-9.4,5.4C581.6,112.7,577.9,113.4,574,113.4z M574,101.5
		c2.9,0,5.6-0.5,8.1-1.6c2.5-1.1,4.7-2.6,6.5-4.5c1.8-1.9,3.3-4.1,4.3-6.6c1-2.5,1.6-5.2,1.6-8s-0.5-5.5-1.6-8
		c-1-2.5-2.5-4.7-4.3-6.6c-1.8-1.9-4-3.3-6.5-4.4c-2.5-1.1-5.2-1.6-8.1-1.6c-2.9,0-5.6,0.5-8.1,1.6c-2.5,1.1-4.6,2.6-6.5,4.4
		c-1.8,1.9-3.3,4-4.3,6.6c-1.1,2.5-1.6,5.2-1.6,8s0.5,5.5,1.6,8c1.1,2.5,2.5,4.7,4.3,6.6c1.8,1.9,4,3.4,6.5,4.5
		C568.4,101,571.1,101.5,574,101.5z"/>
	<path class="st0" d="M618.4,80.8c0-4.5,0.9-8.7,2.6-12.7c1.7-4,4-7.4,7-10.4c3-3,6.4-5.3,10.4-7c4-1.7,8.2-2.6,12.7-2.6
		s8.7,0.9,12.7,2.6s7.4,4.1,10.3,7c2.9,3,5.2,6.4,6.9,10.4c1.7,4,2.5,8.2,2.5,12.7s-0.8,8.7-2.5,12.7c-1.7,4-4,7.4-6.9,10.4
		c-2.9,2.9-6.4,5.3-10.3,7c-4,1.7-8.2,2.6-12.7,2.6c-4,0-7.8-0.7-11.3-2c-3.5-1.3-6.7-3.2-9.5-5.6v23.7c0,1.7-0.5,3.1-1.6,4.3
		s-2.4,1.8-4.2,1.8c-1.7,0-3.1-0.6-4.3-1.8c-1.2-1.2-1.8-2.6-1.8-4.4V80.8z M630.2,80.9c0,2.8,0.5,5.5,1.6,8
		c1.1,2.5,2.6,4.7,4.4,6.6c1.9,1.9,4.1,3.4,6.6,4.5c2.5,1.1,5.2,1.6,8.1,1.6c2.9,0,5.6-0.5,8.1-1.6c2.5-1.1,4.7-2.6,6.6-4.5
		c1.9-1.9,3.3-4.1,4.4-6.6c1.1-2.5,1.6-5.2,1.6-8c0-2.8-0.5-5.5-1.6-8c-1.1-2.5-2.5-4.7-4.4-6.6c-1.9-1.9-4.1-3.3-6.6-4.4
		c-2.5-1.1-5.2-1.6-8.1-1.6c-2.9,0-5.6,0.5-8.1,1.6c-2.5,1.1-4.7,2.6-6.6,4.4c-1.9,1.9-3.3,4.1-4.4,6.6
		C630.8,75.3,630.2,78,630.2,80.9z"/>
</g>
<g>
	<linearGradient id="SVGID_1_" gradientUnits="userSpaceOnUse" x1="58.0659" y1="133.8221" x2="58.0659" y2="3.2889">
		<stop  offset="0" style="stop-color:#EE9117"/>
		<stop  offset="1" style="stop-color:#F72254"/>
	</linearGradient>
	<path class="st1" d="M58.1,133.8c-12.1,0-24.9-13.2-38.1-39.2C9.8,74.5,2.7,52.6,2.7,41.4c0-12.4,6-22.9,17-29.5
		C24.5,9,30.4,6.8,37.1,5.3c6.3-1.4,13.3-2,21-2s14.7,0.7,21,2c6.7,1.4,12.5,3.7,17.4,6.6l0,0c11,6.6,17,17.1,17,29.5
		c0,11.2-7.1,33.1-17.3,53.2C82.9,120.6,70.1,133.8,58.1,133.8z M58.1,15.3c-6.8,0-13,0.6-18.5,1.8c-5.4,1.2-10,2.9-13.7,5.1
		c-7.4,4.5-11.2,10.9-11.2,19.2c0,9.2,6.9,29.7,16,47.8c12.2,24.1,22.4,32.6,27.3,32.6c5,0,15.1-8.5,27.3-32.6
		c9.1-18,16-38.6,16-47.8c0-8.3-3.8-14.7-11.2-19.2l0,0c-3.7-2.2-8.3-4-13.7-5.1C71.1,15.9,64.9,15.3,58.1,15.3z"/>
</g>
</svg>
