<?xml version="1.0" encoding="utf-8"?>
<!-- Generator: Adobe Illustrator 19.2.0, SVG Export Plug-In . SVG Version: 6.00 Build 0)  -->
<svg version="1.1" id="Layer_1" xmlns="http://www.w3.org/2000/svg" xmlns:xlink="http://www.w3.org/1999/xlink" x="0px" y="0px"
	 viewBox="0 0 100 125" style="enable-background:new 0 0 100 125;" xml:space="preserve">
<style type="text/css">
	.st0{fill:#231F20;}
</style>
<g>
	<g>
		<path class="st0" d="M50,57.5c11.1,0,20.2-9,20.2-20.2s-9-20.2-20.2-20.2s-20.2,9-20.2,20.2S38.9,57.5,50,57.5z"/>
	</g>
	<g>
		<path class="st0" d="M64.9,62.5L64.9,62.5c-0.2,0-0.3,0-0.4,0s-0.1,0-0.2,0s-0.2,0-0.3,0c-0.1,0-0.1,0-0.2,0
			c-0.1,0-0.2,0.1-0.3,0.1h-0.1c-0.2,0.1-0.3,0.2-0.5,0.3C59.1,65.6,54.7,67,50,67s-9.1-1.4-12.9-4.1c-0.1-0.1-0.3-0.2-0.5-0.3h-0.1
			c-0.1,0-0.2-0.1-0.4-0.1c-0.1,0-0.1,0-0.2,0c-0.1,0-0.2,0-0.3,0s-0.1,0-0.2,0c-0.1,0-0.2,0-0.3,0c0,0,0,0-0.1,0
			c-13.5,3.1-22.9,14.9-22.9,28.8v3c0,1.4,1.1,2.5,2.5,2.5h70.7c1.4,0,2.5-1.1,2.5-2.5v-3C87.8,77.5,78.4,65.6,64.9,62.5z"/>
	</g>
</g>
</svg>
