<?xml version="1.0" encoding="utf-8"?>
<!-- Generator: Adobe Illustrator 21.0.1, SVG Export Plug-In . SVG Version: 6.00 Build 0)  -->
<svg version="1.1" id="Capa_1" xmlns="http://www.w3.org/2000/svg" xmlns:xlink="http://www.w3.org/1999/xlink" x="0px" y="0px"
	 viewBox="0 0 512 512" style="enable-background:new 0 0 512 512;" xml:space="preserve">
<g>
	<g>
		<path d="M467.8,431.9l-36.6-61.1c-16.9-28.2-25.9-60.5-25.9-93.3V224c0-67.5-55.1-124.6-116.7-143V42.7
			c0-23.5-21.9-32.7-32.7-32.7c-11.8,0-32.7,9.1-32.7,32.7V81c-61.6,18.4-116.7,75.5-116.7,143v53.5c0,32.9-8.9,65.1-25.8,93.3
			l-36.6,61.1c-2,3.3-2,7.4-0.1,10.8c1.9,3.3,5.4,5.4,9.3,5.4h405.3c3.8,0,7.4-2.1,9.3-5.4C469.8,439.3,469.8,435.1,467.8,431.9z"/>
	</g>
</g>
<g>
	<g>
		<path d="M188.8,469.3c12,25.1,37.5,42.7,67.2,42.7s55.1-17.5,67.2-42.7H188.8z"/>
	</g>
</g>
</svg>
