<?xml version="1.0" encoding="utf-8"?>
<!-- Generator: Adobe Illustrator 19.2.0, SVG Export Plug-In . SVG Version: 6.00 Build 0)  -->
<svg version="1.1" id="Layer_1" xmlns="http://www.w3.org/2000/svg" xmlns:xlink="http://www.w3.org/1999/xlink" x="0px" y="0px"
	 viewBox="0 0 100 125" style="enable-background:new 0 0 100 125;" xml:space="preserve">
<g>
	<path d="M85.2,35.5C76,17.2,53.7,9.8,35.4,19S10,51.3,18.9,68.8c4.2,8.3,21.7,29.9,29.4,39.4c1.9,2.4,5.5,2.4,7.5,0
		c7.7-9.5,25-31.1,29.5-39.4C90.9,58.6,90.7,46.4,85.2,35.5z M52.1,71.6c-10.7,0-19.3-8.7-19.3-19.3c0-10.7,8.6-19.3,19.3-19.3
		s19.3,8.7,19.3,19.3C71.5,62.9,62.8,71.6,52.1,71.6z"/>
</g>
</svg>
