<?xml version="1.0" encoding="utf-8"?>
<!-- Generator: Adobe Illustrator 21.0.1, SVG Export Plug-In . SVG Version: 6.00 Build 0)  -->
<svg version="1.1" id="Layer_1" xmlns="http://www.w3.org/2000/svg" xmlns:xlink="http://www.w3.org/1999/xlink" x="0px" y="0px"
	 viewBox="0 0 17 17" style="enable-background:new 0 0 17 17;" xml:space="preserve">
<path id="SVGID_1_" d="M7,0C3.2,0,0,3.2,0,7c0,3.9,3.2,7.1,7,7.1c1.5,0,2.9-0.5,4-1.3l3.8,3.8c0.5,0.5,1.3,0.5,1.8,0s0.5-1.3,0-1.8
	L12.8,11c0.8-1.1,1.3-2.5,1.3-4C14.1,3.2,10.9,0,7,0L7,0z M7,2.5c2.5,0,4.6,2,4.6,4.6s-2,4.6-4.6,4.6c-2.5,0-4.6-2-4.6-4.6
	S4.5,2.5,7,2.5L7,2.5z"/>
</svg>
