<?xml version="1.0" encoding="utf-8"?>
<!-- Generator: Adobe Illustrator 19.2.0, SVG Export Plug-In . SVG Version: 6.00 Build 0)  -->
<svg version="1.1" id="Layer_1" xmlns="http://www.w3.org/2000/svg" xmlns:xlink="http://www.w3.org/1999/xlink" x="0px" y="0px"
	 viewBox="0 0 92.2 93.2" style="enable-background:new 0 0 92.2 93.2;" xml:space="preserve">
<style type="text/css">
	.st0{fill:#4D76A1;}
</style>
<path class="st0" d="M45.9,2C21.1,2,1,22.1,1,46.9c0,24.8,20.1,44.9,44.9,44.9c24.8,0,44.9-20.1,44.9-44.9C90.8,22.1,70.7,2,45.9,2z
	 M71.6,66.6l-7.9,0.1c0,0-1.7,0.3-3.9-1.2c-2.9-2-5.7-7.3-7.9-6.6c-2.2,0.7-2.1,5.4-2.1,5.4s0,1-0.5,1.5c-0.5,0.6-1.6,0.7-1.6,0.7
	h-3.5c0,0-7.8,0.5-14.6-6.7C22.1,52,15.5,36.6,15.5,36.6s-0.4-1,0-1.5c0.5-0.6,1.7-0.6,1.7-0.6l8.4-0.1c0,0,0.8,0.1,1.4,0.5
	c0.5,0.3,0.7,1,0.7,1s1.4,3.4,3.2,6.6c3.5,6.1,5.2,7.4,6.4,6.8c1.7-0.9,1.2-8.6,1.2-8.6s0-2.8-0.9-4c-0.7-1-2-1.2-2.6-1.3
	c-0.5-0.1,0.3-1.2,1.3-1.7c1.5-0.7,4.2-0.8,7.4-0.8c2.5,0,3.2,0.2,4.1,0.4c2.9,0.7,1.9,3.4,1.9,9.9c0,2.1-0.4,5,1.1,6
	c0.6,0.4,2.2,0.1,6.2-6.6c1.9-3.2,3.3-6.9,3.3-6.9s0.3-0.7,0.8-1s1.1-0.2,1.1-0.2l8.9-0.1c0,0,2.7-0.3,3.1,0.9c0.5,1.3-1,4.2-4.6,9
	c-5.9,7.9-6.6,7.2-1.7,11.8c4.7,4.4,5.7,6.5,5.9,6.8C75.7,66.3,71.6,66.6,71.6,66.6z"/>
</svg>
